<svg width="300" height="300" viewBox="0 0 300 300" fill="none" xmlns="http://www.w3.org/2000/svg">
<g filter="url(#filter0_d_14_46)">
<circle cx="150" cy="146" r="100" fill="#1A7431"/>
</g>
<circle cx="150" cy="146" r="91" fill="#FFBD35"/>
<g clip-path="url(#clip0_14_46)">
<path d="M150 55C99.7463 55 59 95.7463 59 146C59 196.254 99.7463 237 150 237C200.254 237 241 196.254 241 146C241 95.7463 200.254 55 150 55ZM121.151 106.31H121.607C121.519 106.31 121.466 106.347 121.385 106.354C124.93 106.476 127.572 109.143 127.572 112.73C127.572 116.401 124.823 119.151 121.151 119.151H120.696C119.319 119.151 117.941 120.529 117.941 121.906C117.941 123.283 119.319 124.661 120.696 124.661H121.151C124.823 124.661 127.572 127.41 127.572 131.081C127.572 134.753 124.823 137.513 121.151 137.513C120.234 137.513 119.319 136.598 119.319 135.68C119.319 134.763 120.234 133.836 121.151 133.836C122.528 133.836 123.906 132.458 123.906 131.081C123.906 129.705 122.984 128.338 121.607 128.338C117.936 128.338 115.186 125.577 115.186 121.906C115.186 118.694 117.936 115.485 121.607 115.485H122.073C123.45 115.485 124.817 114.107 124.817 112.73C124.817 111.354 123.45 109.975 122.073 109.975C121.156 110.434 119.774 109.516 119.774 108.598C119.774 107.31 120.205 106.463 121.385 106.354C121.302 106.351 121.235 106.31 121.151 106.31ZM139.047 106.31C139.047 106.31 139.51 106.306 139.969 106.765C143.64 106.765 146.39 109.515 146.39 113.186C146.39 116.857 143.64 119.618 139.969 119.618H139.503H139.047C137.67 119.618 136.292 120.996 136.292 122.372C136.292 123.749 137.67 125.116 139.047 125.116H139.503C143.174 125.116 145.934 127.877 145.934 131.548C145.934 135.219 143.174 137.969 139.503 137.969C138.585 137.969 137.67 137.054 137.67 136.136C137.67 135.218 138.585 134.303 139.503 134.303C140.879 134.303 142.257 132.925 142.257 131.548C142.257 130.171 140.879 128.793 139.503 128.793C135.831 128.793 133.082 126.044 133.082 122.372C133.082 119.16 136.29 115.941 139.503 115.941H139.969H140.425C141.801 115.941 142.724 114.562 142.724 113.186C142.724 111.809 141.346 110.431 139.969 110.431C138.592 110.431 137.67 109.516 137.67 108.598C137.211 107.68 138.129 106.31 139.047 106.31ZM157.398 106.31C157.398 106.31 157.861 106.306 158.32 106.765C161.991 106.765 164.741 109.515 164.741 113.186C164.741 116.857 161.991 119.618 158.32 119.618H157.865H157.398C156.022 119.618 154.654 120.996 154.654 122.372C154.654 123.749 156.022 125.116 157.398 125.116H157.865C161.536 125.116 164.285 127.877 164.285 131.548C164.285 135.219 161.536 137.969 157.865 137.969C156.947 137.969 156.032 137.054 156.032 136.136C156.032 135.218 156.947 134.303 157.865 134.303C159.241 134.303 160.62 132.925 160.62 131.548C160.62 130.171 159.241 128.793 157.865 128.793C154.194 128.793 151.433 126.044 151.433 122.372C151.433 119.16 154.653 115.941 157.865 115.941H158.32C159.697 115.941 161.075 114.562 161.075 113.186C161.075 111.809 159.697 110.431 158.32 110.431C156.944 110.431 156.032 109.516 156.032 108.598C155.573 107.68 156.48 106.31 157.398 106.31ZM194.111 109.52C197.324 109.52 199.622 111.81 200.999 114.563C202.375 117.317 203.287 120.53 203.287 123.283C203.287 128.331 200.085 132.463 195.955 133.381C200.086 146.23 198.703 158.163 199.621 170.094V170.55C199.621 174.221 196.865 176.515 194.111 176.515C191.358 176.515 188.613 174.221 188.613 170.55V170.094C189.531 158.163 188.607 144.853 192.279 133.381C188.149 132.463 184.936 128.331 184.936 123.283C184.936 120.53 185.859 117.317 187.235 114.563C188.612 111.81 190.899 109.52 194.111 109.52ZM98.2015 142.101H182.648C184.024 142.101 184.939 143.471 184.48 144.389C180.809 158.156 171.173 168.72 159.242 174.226V183.857C159.242 184.775 158.316 185.69 157.398 185.69H124.362C123.444 185.69 122.529 184.775 122.529 183.857V174.682V174.226C109.68 168.72 100.506 157.697 96.8352 144.389C96.3763 143.471 97.2838 142.101 98.2015 142.101Z" fill="white"/>
</g>
<defs>
<filter id="filter0_d_14_46" x="0" y="0" width="300" height="300" filterUnits="userSpaceOnUse" color-interpolation-filters="sRGB">
<feFlood flood-opacity="0" result="BackgroundImageFix"/>
<feColorMatrix in="SourceAlpha" type="matrix" values="0 0 0 0 0 0 0 0 0 0 0 0 0 0 0 0 0 0 127 0" result="hardAlpha"/>
<feMorphology radius="10" operator="dilate" in="SourceAlpha" result="effect1_dropShadow_14_46"/>
<feOffset dy="4"/>
<feGaussianBlur stdDeviation="20"/>
<feComposite in2="hardAlpha" operator="out"/>
<feColorMatrix type="matrix" values="0 0 0 0 0.254902 0 0 0 0 0.917647 0 0 0 0 0.831373 0 0 0 0.5 0"/>
<feBlend mode="normal" in2="BackgroundImageFix" result="effect1_dropShadow_14_46"/>
<feBlend mode="normal" in="SourceGraphic" in2="effect1_dropShadow_14_46" result="shape"/>
</filter>
<clipPath id="clip0_14_46">
<rect width="182" height="182" fill="white" transform="translate(59 55)"/>
</clipPath>
</defs>
</svg>
