<svg width="290" height="262" viewBox="0 0 290 262" fill="none" xmlns="http://www.w3.org/2000/svg">
<rect y="41" width="290" height="85" fill="#FFB72B"/>
<ellipse cx="144.5" cy="84" rx="103.5" ry="84" fill="#FFB72B"/>
<path d="M101.25 230.818C101.272 234.708 101.954 238.563 103.266 242.208C104.487 245.773 106.745 248.859 109.729 251.042C112.713 253.224 116.277 254.396 119.93 254.396C123.583 254.396 127.147 253.224 130.131 251.042C133.115 248.859 135.373 245.773 136.594 242.208C137.906 238.563 138.589 234.708 138.61 230.818C138.61 216.984 133.889 213.938 129.914 209.427C126.901 206.009 124.291 202.173 124.359 196.065C124.578 176.295 129.986 154.736 126.712 131.679C125.844 125.567 123.438 123.604 119.93 123.604C116.422 123.604 114.016 125.568 113.148 131.679C109.874 154.736 115.282 176.295 115.501 196.065C115.569 202.173 112.959 206.009 109.946 209.427C105.971 213.938 101.25 216.984 101.25 230.818ZM150.456 237.984L151.821 252.477C151.871 253.002 152.107 253.49 152.485 253.845C152.863 254.199 153.354 254.396 153.864 254.396H153.967C154.511 254.396 155.033 254.172 155.418 253.773C155.803 253.375 156.02 252.834 156.02 252.27V226.132C155.963 225.546 156.13 224.962 156.483 224.502C156.837 224.042 157.351 223.743 157.914 223.67C158.478 223.743 158.991 224.042 159.345 224.502C159.699 224.961 159.866 225.546 159.809 226.132V252.27C159.811 252.833 160.028 253.372 160.413 253.77C160.797 254.167 161.319 254.39 161.862 254.39C162.406 254.39 162.927 254.167 163.312 253.77C163.697 253.372 163.914 252.833 163.915 252.27V226.132C163.858 225.546 164.025 224.962 164.379 224.502C164.733 224.042 165.246 223.743 165.81 223.67C166.373 223.743 166.887 224.042 167.241 224.502C167.595 224.962 167.761 225.546 167.705 226.132V252.27C167.706 252.833 167.923 253.372 168.308 253.77C168.693 254.167 169.214 254.39 169.758 254.39C170.301 254.39 170.822 254.167 171.207 253.77C171.592 253.372 171.809 252.833 171.81 252.27V226.132C171.754 225.546 171.92 224.962 172.274 224.502C172.628 224.042 173.142 223.743 173.705 223.67C174.269 223.743 174.782 224.042 175.136 224.502C175.49 224.961 175.657 225.546 175.6 226.132V252.27C175.6 252.549 175.653 252.826 175.756 253.084C175.86 253.342 176.011 253.576 176.201 253.773C176.392 253.971 176.618 254.127 176.867 254.234C177.116 254.341 177.383 254.396 177.653 254.396H177.755C178.265 254.396 178.757 254.199 179.135 253.844C179.512 253.49 179.749 253.002 179.798 252.477L181.163 237.984C182.587 222.874 181.614 216.721 176.072 210.918C174.24 209.203 172.783 207.104 171.798 204.759C170.814 202.415 170.324 199.879 170.362 197.323C170.587 177.21 176.146 155.277 172.78 131.82C171.89 125.611 169.415 123.604 165.81 123.604C162.204 123.604 159.731 125.602 158.839 131.82C155.474 155.277 161.033 177.21 161.258 197.323C161.296 199.879 160.806 202.415 159.821 204.759C158.837 207.104 157.38 209.203 155.548 210.918C150.006 216.721 149.033 222.874 150.456 237.984Z" fill="#FF6363"/>
<path d="M177.424 30.8781C179.498 30.7818 181.099 29.0222 181.003 26.9486C180.907 24.8749 179.147 23.2731 177.074 23.3694L175.666 23.4341L175.601 22.0264C175.505 19.9527 173.745 18.3509 171.672 18.4472C169.598 18.5435 167.996 20.3031 168.092 22.3767L168.507 31.2931L177.424 30.8781ZM179.161 41.9471L179.111 43.0328L178.025 42.9823C176.427 42.9081 175.071 44.1438 174.997 45.7425C174.923 47.3411 176.158 48.6967 177.757 48.7709L184.63 49.0897L184.948 42.2169C185.023 40.6183 183.787 39.2627 182.188 39.1885C180.593 39.1128 179.236 40.3484 179.161 41.9471Z" fill="black"/>
<path d="M165.227 13.5818C166.316 13.5818 167.199 12.6987 167.199 11.6092C167.199 10.5197 166.316 9.63654 165.227 9.63654C164.137 9.63654 163.254 10.5197 163.254 11.6092C163.254 12.6987 164.137 13.5818 165.227 13.5818Z" fill="black"/>
<path d="M184.953 19.4572C186.043 19.4572 186.926 18.574 186.926 17.4845C186.926 16.3951 186.043 15.5119 184.953 15.5119C183.864 15.5119 182.98 16.3951 182.98 17.4845C182.98 18.574 183.864 19.4572 184.953 19.4572Z" fill="black"/>
<path d="M167.199 41.1564C168.289 41.1564 169.172 40.2732 169.172 39.1838C169.172 38.0943 168.289 37.2111 167.199 37.2111C166.11 37.2111 165.227 38.0943 165.227 39.1838C165.227 40.2732 166.11 41.1564 167.199 41.1564Z" fill="black"/>
<path d="M113.576 30.8781L122.493 31.2931L122.908 22.3767C123.004 20.3031 121.402 18.545 119.328 18.4472C117.255 18.3509 115.497 19.9527 115.399 22.0264L115.334 23.4341L113.926 23.3694C111.853 23.2731 110.095 24.8749 109.997 26.9486C109.901 29.0238 111.502 30.7818 113.576 30.8781ZM106.05 42.2153L106.369 49.0881L113.242 48.7693C114.84 48.6951 116.076 47.3395 116.002 45.7409C115.928 44.1422 114.572 42.9066 112.973 42.9807L111.888 43.0312L111.837 41.9455C111.763 40.3468 110.407 39.1112 108.809 39.1853C107.212 39.2611 105.976 40.6167 106.05 42.2153Z" fill="black"/>
<path d="M125.773 13.5818C126.863 13.5818 127.746 12.6987 127.746 11.6092C127.746 10.5197 126.863 9.63654 125.773 9.63654C124.684 9.63654 123.801 10.5197 123.801 11.6092C123.801 12.6987 124.684 13.5818 125.773 13.5818Z" fill="black"/>
<path d="M106.047 19.4572C107.136 19.4572 108.02 18.574 108.02 17.4845C108.02 16.3951 107.136 15.5119 106.047 15.5119C104.957 15.5119 104.074 16.3951 104.074 17.4845C104.074 18.574 104.957 19.4572 106.047 19.4572Z" fill="black"/>
<path d="M123.801 41.1564C124.89 41.1564 125.773 40.2732 125.773 39.1838C125.773 38.0943 124.89 37.2111 123.801 37.2111C122.711 37.2111 121.828 38.0943 121.828 39.1838C121.828 40.2732 122.711 41.1564 123.801 41.1564Z" fill="black"/>
<path d="M145.5 48.1033C149.306 48.1033 152.404 45.0055 152.404 41.199C152.404 37.3926 149.306 34.2947 145.5 34.2947C141.694 34.2947 138.596 37.3926 138.596 41.199C138.596 45.0055 141.694 48.1033 145.5 48.1033ZM145.5 36.2674C148.219 36.2674 150.432 38.4799 150.432 41.199C150.432 43.9181 148.219 46.1307 145.5 46.1307C142.781 46.1307 140.568 43.9181 140.568 41.199C140.568 38.4799 142.781 36.2674 145.5 36.2674ZM101.153 89.5291C101.658 96.1399 107.199 101.365 113.938 101.365H177.063C183.801 101.365 189.342 96.1399 189.847 89.5291H101.153Z" fill="black"/>
<path d="M105.073 87.5564H112.969C113.313 76.3691 119.474 66.0166 129.225 60.3622C129.697 60.0892 130.3 60.2501 130.573 60.7204C130.846 61.1923 130.685 61.7951 130.214 62.0681C121.069 67.3691 115.284 77.0682 114.941 87.5549H185.928C185.403 65.7105 167.471 48.1017 145.502 48.1017C123.533 48.1017 105.599 65.7105 105.073 87.5564ZM145.5 55.9939C149.718 55.9939 153.825 56.7925 157.707 58.369C158.212 58.5742 158.455 59.1486 158.25 59.6536C158.093 60.0371 157.726 60.2691 157.336 60.2691C157.213 60.2691 157.087 60.2454 156.965 60.1965C153.32 58.7162 149.463 57.9666 145.5 57.9666C144.956 57.9666 144.514 57.5247 144.514 56.9803C144.514 56.4358 144.956 55.9939 145.5 55.9939Z" fill="#FF6363"/>
</svg>
