<svg width="208" height="208" viewBox="0 0 208 208" fill="none" xmlns="http://www.w3.org/2000/svg">
<g filter="url(#filter0_d_14_45)">
<circle cx="104" cy="100" r="100" fill="#1A7431"/>
</g>
<circle cx="104" cy="100" r="91" fill="#FFBD35"/>
<g clip-path="url(#clip0_14_45)">
<path d="M104 9C53.7463 9 13 49.7463 13 100C13 150.254 53.7463 191 104 191C154.254 191 195 150.254 195 100C195 49.7463 154.254 9 104 9ZM75.1515 60.3097H75.6069C75.5186 60.3097 75.4657 60.3467 75.3848 60.3541C78.9302 60.476 81.5721 63.143 81.5721 66.7303C81.5721 70.4015 78.8226 73.151 75.1515 73.151H74.696C73.3194 73.151 71.9412 74.5292 71.9412 75.9059C71.9412 77.2826 73.3194 78.6608 74.696 78.6608H75.1515C78.8226 78.6608 81.5721 81.4103 81.5721 85.0814C81.5721 88.7525 78.8226 91.5132 75.1515 91.5132C74.2337 91.5132 73.3186 90.5981 73.3186 89.6803C73.3186 88.7625 74.2337 87.8363 75.1515 87.8363C76.5282 87.8363 77.9064 86.4581 77.9064 85.0814C77.9064 83.7048 76.9836 82.3376 75.6069 82.3376C71.9358 82.3376 69.1863 79.577 69.1863 75.9059C69.1863 72.6937 71.9358 69.4852 75.6069 69.4852H76.0735C77.4502 69.4852 78.8173 68.107 78.8173 66.7303C78.8173 65.3537 77.4502 63.9755 76.0735 63.9755C75.1557 64.4344 73.774 63.5158 73.774 62.598C73.774 61.3097 74.205 60.4626 75.3848 60.3541C75.302 60.3513 75.2353 60.3097 75.1515 60.3097ZM93.0471 60.3097C93.0471 60.3097 93.5102 60.3062 93.9691 60.7651C97.6402 60.7651 100.39 63.5147 100.39 67.1858C100.39 70.8569 97.6402 73.6176 93.9691 73.6176H93.5026H93.0471C91.6704 73.6176 90.2922 74.9958 90.2922 76.3724C90.2922 77.7491 91.6704 79.1162 93.0471 79.1162H93.5026C97.1737 79.1162 99.9343 81.8768 99.9343 85.548C99.9343 89.2191 97.1737 91.9686 93.5026 91.9686C92.5848 91.9686 91.6697 91.0535 91.6697 90.1357C91.6697 89.218 92.5848 88.3029 93.5026 88.3029C94.8792 88.3029 96.2574 86.9246 96.2574 85.548C96.2574 84.1713 94.8792 82.7931 93.5026 82.7931C89.8314 82.7931 87.0819 80.0436 87.0819 76.3724C87.0819 73.1602 90.2903 69.9407 93.5026 69.9407H93.9691H94.4246C95.8012 69.9407 96.724 68.5625 96.724 67.1858C96.724 65.8091 95.3458 64.4309 93.9691 64.4309C92.5924 64.4309 91.6697 63.5158 91.6697 62.598C91.2108 61.6802 92.1293 60.3097 93.0471 60.3097ZM111.398 60.3097C111.398 60.3097 111.861 60.3062 112.32 60.7651C115.991 60.7651 118.741 63.5147 118.741 67.1858C118.741 70.8569 115.991 73.6176 112.32 73.6176H111.865H111.398C110.022 73.6176 108.654 74.9958 108.654 76.3724C108.654 77.7491 110.022 79.1162 111.398 79.1162H111.865C115.536 79.1162 118.285 81.8768 118.285 85.548C118.285 89.2191 115.536 91.9686 111.865 91.9686C110.947 91.9686 110.032 91.0535 110.032 90.1357C110.032 89.218 110.947 88.3029 111.865 88.3029C113.241 88.3029 114.62 86.9246 114.62 85.548C114.62 84.1713 113.241 82.7931 111.865 82.7931C108.194 82.7931 105.433 80.0436 105.433 76.3724C105.433 73.1602 108.653 69.9407 111.865 69.9407H112.32C113.697 69.9407 115.075 68.5625 115.075 67.1858C115.075 65.8091 113.697 64.4309 112.32 64.4309C110.944 64.4309 110.032 63.5158 110.032 62.598C109.573 61.6802 110.48 60.3097 111.398 60.3097ZM148.111 63.52C151.324 63.52 153.622 65.8099 154.999 68.5632C156.375 71.3166 157.287 74.53 157.287 77.2833C157.287 82.3311 154.085 86.4631 149.955 87.3809C154.086 100.23 152.703 112.163 153.621 124.094V124.55C153.621 128.221 150.865 130.515 148.111 130.515C145.358 130.515 142.613 128.221 142.613 124.55V124.094C143.531 112.163 142.607 98.8532 146.279 87.3809C142.149 86.4631 138.936 82.3311 138.936 77.2833C138.936 74.53 139.859 71.3166 141.235 68.5632C142.612 65.8099 144.899 63.52 148.111 63.52ZM52.2015 96.101H136.648C138.024 96.101 138.939 97.4715 138.48 98.3893C134.809 112.156 125.173 122.72 113.242 128.226V137.857C113.242 138.775 112.316 139.69 111.398 139.69H78.3618C77.444 139.69 76.5289 138.775 76.5289 137.857V128.682V128.226C63.68 122.72 54.5063 111.697 50.8352 98.3893C50.3763 97.4715 51.2838 96.101 52.2015 96.101Z" fill="white"/>
</g>
<defs>
<filter id="filter0_d_14_45" x="0" y="0" width="208" height="208" filterUnits="userSpaceOnUse" color-interpolation-filters="sRGB">
<feFlood flood-opacity="0" result="BackgroundImageFix"/>
<feColorMatrix in="SourceAlpha" type="matrix" values="0 0 0 0 0 0 0 0 0 0 0 0 0 0 0 0 0 0 127 0" result="hardAlpha"/>
<feOffset dy="4"/>
<feGaussianBlur stdDeviation="2"/>
<feComposite in2="hardAlpha" operator="out"/>
<feColorMatrix type="matrix" values="0 0 0 0 0 0 0 0 0 0 0 0 0 0 0 0 0 0 0.25 0"/>
<feBlend mode="normal" in2="BackgroundImageFix" result="effect1_dropShadow_14_45"/>
<feBlend mode="normal" in="SourceGraphic" in2="effect1_dropShadow_14_45" result="shape"/>
</filter>
<clipPath id="clip0_14_45">
<rect width="182" height="182" fill="white" transform="translate(13 9)"/>
</clipPath>
</defs>
</svg>
